<mxfile host="app.diagrams.net" modified="2023-11-13T11:51:12.643Z" agent="Mozilla/5.0 (X11; Linux x86_64) AppleWebKit/537.36 (KHTML, like Gecko) Chrome/117.0.0.0 Safari/537.36" etag="izlV6uIdAmOmR-vgrHdN" version="22.1.0" type="device">
  <diagram name="Page-1" id="2YBvvXClWsGukQMizWep">
    <mxGraphModel dx="1364" dy="811" grid="1" gridSize="10" guides="1" tooltips="1" connect="1" arrows="1" fold="1" page="1" pageScale="1" pageWidth="850" pageHeight="1100" math="0" shadow="0">
      <root>
        <mxCell id="0" />
        <mxCell id="1" parent="0" />
        <mxCell id="aM9ryv3xv72pqoxQDRHE-1" value="Load Balancer" style="shape=umlLifeline;perimeter=lifelinePerimeter;whiteSpace=wrap;html=1;container=0;dropTarget=0;collapsible=0;recursiveResize=0;outlineConnect=0;portConstraint=eastwest;newEdgeStyle={&quot;edgeStyle&quot;:&quot;elbowEdgeStyle&quot;,&quot;elbow&quot;:&quot;vertical&quot;,&quot;curved&quot;:0,&quot;rounded&quot;:0};" parent="1" vertex="1">
          <mxGeometry x="153" y="40" width="100" height="450" as="geometry" />
        </mxCell>
        <mxCell id="aM9ryv3xv72pqoxQDRHE-2" value="" style="html=1;points=[];perimeter=orthogonalPerimeter;outlineConnect=0;targetShapes=umlLifeline;portConstraint=eastwest;newEdgeStyle={&quot;edgeStyle&quot;:&quot;elbowEdgeStyle&quot;,&quot;elbow&quot;:&quot;vertical&quot;,&quot;curved&quot;:0,&quot;rounded&quot;:0};" parent="aM9ryv3xv72pqoxQDRHE-1" vertex="1">
          <mxGeometry x="45" y="70" width="10" height="90" as="geometry" />
        </mxCell>
        <mxCell id="aM9ryv3xv72pqoxQDRHE-5" value="Frontend" style="shape=umlLifeline;perimeter=lifelinePerimeter;whiteSpace=wrap;html=1;container=0;dropTarget=0;collapsible=0;recursiveResize=0;outlineConnect=0;portConstraint=eastwest;newEdgeStyle={&quot;edgeStyle&quot;:&quot;elbowEdgeStyle&quot;,&quot;elbow&quot;:&quot;vertical&quot;,&quot;curved&quot;:0,&quot;rounded&quot;:0};" parent="1" vertex="1">
          <mxGeometry x="280" y="40" width="100" height="520" as="geometry" />
        </mxCell>
        <mxCell id="aM9ryv3xv72pqoxQDRHE-6" value="" style="html=1;points=[];perimeter=orthogonalPerimeter;outlineConnect=0;targetShapes=umlLifeline;portConstraint=eastwest;newEdgeStyle={&quot;edgeStyle&quot;:&quot;elbowEdgeStyle&quot;,&quot;elbow&quot;:&quot;vertical&quot;,&quot;curved&quot;:0,&quot;rounded&quot;:0};" parent="aM9ryv3xv72pqoxQDRHE-5" vertex="1">
          <mxGeometry x="45" y="80" width="10" height="240" as="geometry" />
        </mxCell>
        <mxCell id="aM9ryv3xv72pqoxQDRHE-7" value="request server" style="html=1;verticalAlign=bottom;endArrow=block;edgeStyle=elbowEdgeStyle;elbow=vertical;curved=0;rounded=0;" parent="1" source="aM9ryv3xv72pqoxQDRHE-2" target="aM9ryv3xv72pqoxQDRHE-6" edge="1">
          <mxGeometry relative="1" as="geometry">
            <mxPoint x="208" y="144" as="sourcePoint" />
            <Array as="points">
              <mxPoint x="293" y="144" />
            </Array>
            <mxPoint x="358" y="144" as="targetPoint" />
          </mxGeometry>
        </mxCell>
        <mxCell id="_dhNcksoIE_Lo7grJNJL-1" value="Database" style="shape=umlLifeline;perimeter=lifelinePerimeter;whiteSpace=wrap;html=1;container=0;dropTarget=0;collapsible=0;recursiveResize=0;outlineConnect=0;portConstraint=eastwest;newEdgeStyle={&quot;edgeStyle&quot;:&quot;elbowEdgeStyle&quot;,&quot;elbow&quot;:&quot;vertical&quot;,&quot;curved&quot;:0,&quot;rounded&quot;:0};" parent="1" vertex="1">
          <mxGeometry x="736" y="40" width="100" height="620" as="geometry" />
        </mxCell>
        <mxCell id="_dhNcksoIE_Lo7grJNJL-12" value="GET data" style="html=1;verticalAlign=bottom;endArrow=block;edgeStyle=elbowEdgeStyle;elbow=vertical;curved=0;rounded=0;" parent="1" source="aM9ryv3xv72pqoxQDRHE-6" edge="1" target="GjxCCbqdhPCahjUUIicC-2">
          <mxGeometry relative="1" as="geometry">
            <mxPoint x="368" y="164" as="sourcePoint" />
            <Array as="points">
              <mxPoint x="400" y="230" />
            </Array>
            <mxPoint x="533" y="164" as="targetPoint" />
          </mxGeometry>
        </mxCell>
        <mxCell id="_dhNcksoIE_Lo7grJNJL-15" value="address" style="html=1;verticalAlign=bottom;endArrow=open;dashed=1;endSize=8;edgeStyle=elbowEdgeStyle;elbow=horizontal;curved=0;rounded=0;" parent="1" edge="1" target="aM9ryv3xv72pqoxQDRHE-2" source="aM9ryv3xv72pqoxQDRHE-6">
          <mxGeometry relative="1" as="geometry">
            <mxPoint x="208" y="181" as="targetPoint" />
            <Array as="points">
              <mxPoint x="295" y="181" />
            </Array>
            <mxPoint x="358" y="181" as="sourcePoint" />
            <mxPoint as="offset" />
          </mxGeometry>
        </mxCell>
        <mxCell id="GjxCCbqdhPCahjUUIicC-1" value="REST Controller" style="shape=umlLifeline;perimeter=lifelinePerimeter;whiteSpace=wrap;html=1;container=0;dropTarget=0;collapsible=0;recursiveResize=0;outlineConnect=0;portConstraint=eastwest;newEdgeStyle={&quot;edgeStyle&quot;:&quot;elbowEdgeStyle&quot;,&quot;elbow&quot;:&quot;vertical&quot;,&quot;curved&quot;:0,&quot;rounded&quot;:0};" vertex="1" parent="1">
          <mxGeometry x="402" y="40" width="100" height="580" as="geometry" />
        </mxCell>
        <mxCell id="GjxCCbqdhPCahjUUIicC-2" value="" style="html=1;points=[];perimeter=orthogonalPerimeter;outlineConnect=0;targetShapes=umlLifeline;portConstraint=eastwest;newEdgeStyle={&quot;edgeStyle&quot;:&quot;elbowEdgeStyle&quot;,&quot;elbow&quot;:&quot;vertical&quot;,&quot;curved&quot;:0,&quot;rounded&quot;:0};" vertex="1" parent="GjxCCbqdhPCahjUUIicC-1">
          <mxGeometry x="45" y="170" width="10" height="120" as="geometry" />
        </mxCell>
        <mxCell id="GjxCCbqdhPCahjUUIicC-3" value="Client Browser" style="shape=umlLifeline;perimeter=lifelinePerimeter;whiteSpace=wrap;html=1;container=0;dropTarget=0;collapsible=0;recursiveResize=0;outlineConnect=0;portConstraint=eastwest;newEdgeStyle={&quot;edgeStyle&quot;:&quot;elbowEdgeStyle&quot;,&quot;elbow&quot;:&quot;vertical&quot;,&quot;curved&quot;:0,&quot;rounded&quot;:0};" vertex="1" parent="1">
          <mxGeometry x="32" y="40" width="100" height="440" as="geometry" />
        </mxCell>
        <mxCell id="GjxCCbqdhPCahjUUIicC-4" value="" style="html=1;points=[];perimeter=orthogonalPerimeter;outlineConnect=0;targetShapes=umlLifeline;portConstraint=eastwest;newEdgeStyle={&quot;edgeStyle&quot;:&quot;elbowEdgeStyle&quot;,&quot;elbow&quot;:&quot;vertical&quot;,&quot;curved&quot;:0,&quot;rounded&quot;:0};" vertex="1" parent="GjxCCbqdhPCahjUUIicC-3">
          <mxGeometry x="45" y="70" width="10" height="260" as="geometry" />
        </mxCell>
        <mxCell id="GjxCCbqdhPCahjUUIicC-5" value="input" style="html=1;verticalAlign=bottom;startArrow=oval;endArrow=block;startSize=8;edgeStyle=elbowEdgeStyle;elbow=vertical;curved=0;rounded=0;" edge="1" parent="1" target="GjxCCbqdhPCahjUUIicC-4">
          <mxGeometry relative="1" as="geometry">
            <mxPoint x="10" y="120" as="sourcePoint" />
            <mxPoint x="77" y="120" as="targetPoint" />
          </mxGeometry>
        </mxCell>
        <mxCell id="GjxCCbqdhPCahjUUIicC-6" value="web page" style="html=1;verticalAlign=bottom;endArrow=open;dashed=1;endSize=8;edgeStyle=elbowEdgeStyle;elbow=horizontal;curved=0;rounded=0;" edge="1" parent="1" source="aM9ryv3xv72pqoxQDRHE-6" target="GjxCCbqdhPCahjUUIicC-4">
          <mxGeometry relative="1" as="geometry">
            <mxPoint x="87" y="298" as="targetPoint" />
            <Array as="points">
              <mxPoint x="280" y="350" />
              <mxPoint x="177" y="338" />
            </Array>
            <mxPoint x="358" y="298" as="sourcePoint" />
            <mxPoint as="offset" />
          </mxGeometry>
        </mxCell>
        <mxCell id="GjxCCbqdhPCahjUUIicC-7" value="request server&lt;br&gt;&amp;nbsp;address" style="html=1;verticalAlign=bottom;endArrow=block;edgeStyle=elbowEdgeStyle;elbow=vertical;curved=0;rounded=0;" edge="1" parent="1" source="GjxCCbqdhPCahjUUIicC-4" target="aM9ryv3xv72pqoxQDRHE-2">
          <mxGeometry relative="1" as="geometry">
            <mxPoint x="87" y="121" as="sourcePoint" />
            <Array as="points">
              <mxPoint x="175" y="121" />
            </Array>
            <mxPoint x="198" y="121" as="targetPoint" />
          </mxGeometry>
        </mxCell>
        <mxCell id="GjxCCbqdhPCahjUUIicC-8" value="data" style="html=1;verticalAlign=bottom;endArrow=open;dashed=1;endSize=8;edgeStyle=elbowEdgeStyle;elbow=horizontal;curved=0;rounded=0;" edge="1" parent="1" source="GjxCCbqdhPCahjUUIicC-2" target="aM9ryv3xv72pqoxQDRHE-6">
          <mxGeometry relative="1" as="geometry">
            <mxPoint x="440" y="370" as="targetPoint" />
            <Array as="points">
              <mxPoint x="390" y="320" />
              <mxPoint x="500" y="210" />
              <mxPoint x="450" y="220" />
            </Array>
            <mxPoint x="711" y="370" as="sourcePoint" />
            <mxPoint as="offset" />
          </mxGeometry>
        </mxCell>
        <mxCell id="GjxCCbqdhPCahjUUIicC-9" value="select" style="html=1;verticalAlign=bottom;endArrow=block;edgeStyle=elbowEdgeStyle;elbow=vertical;curved=0;rounded=0;" edge="1" parent="1" source="GjxCCbqdhPCahjUUIicC-15" target="_dhNcksoIE_Lo7grJNJL-2">
          <mxGeometry relative="1" as="geometry">
            <mxPoint x="550" y="200" as="sourcePoint" />
            <Array as="points">
              <mxPoint x="720" y="260" />
            </Array>
            <mxPoint x="715" y="200" as="targetPoint" />
          </mxGeometry>
        </mxCell>
        <mxCell id="GjxCCbqdhPCahjUUIicC-10" value="data" style="html=1;verticalAlign=bottom;endArrow=open;dashed=1;endSize=8;edgeStyle=elbowEdgeStyle;elbow=horizontal;curved=0;rounded=0;" edge="1" parent="1" source="_dhNcksoIE_Lo7grJNJL-2" target="GjxCCbqdhPCahjUUIicC-15">
          <mxGeometry relative="1" as="geometry">
            <mxPoint x="570" y="264.5" as="targetPoint" />
            <Array as="points">
              <mxPoint x="710" y="290" />
            </Array>
            <mxPoint x="735" y="264.5" as="sourcePoint" />
            <mxPoint as="offset" />
          </mxGeometry>
        </mxCell>
        <mxCell id="GjxCCbqdhPCahjUUIicC-11" value="address" style="html=1;verticalAlign=bottom;endArrow=open;dashed=1;endSize=8;edgeStyle=elbowEdgeStyle;elbow=horizontal;curved=0;rounded=0;" edge="1" parent="1" source="aM9ryv3xv72pqoxQDRHE-2" target="GjxCCbqdhPCahjUUIicC-4">
          <mxGeometry relative="1" as="geometry">
            <mxPoint x="20" y="190" as="targetPoint" />
            <Array as="points">
              <mxPoint x="107" y="190" />
            </Array>
            <mxPoint x="170" y="190" as="sourcePoint" />
            <mxPoint as="offset" />
          </mxGeometry>
        </mxCell>
        <mxCell id="GjxCCbqdhPCahjUUIicC-12" value="GET webpage" style="html=1;verticalAlign=bottom;endArrow=block;edgeStyle=elbowEdgeStyle;elbow=vertical;curved=0;rounded=0;" edge="1" parent="1" source="GjxCCbqdhPCahjUUIicC-4" target="aM9ryv3xv72pqoxQDRHE-6">
          <mxGeometry relative="1" as="geometry">
            <mxPoint x="87" y="218" as="sourcePoint" />
            <Array as="points">
              <mxPoint x="241" y="218" />
            </Array>
            <mxPoint x="358" y="218" as="targetPoint" />
          </mxGeometry>
        </mxCell>
        <mxCell id="_dhNcksoIE_Lo7grJNJL-2" value="" style="html=1;points=[];perimeter=orthogonalPerimeter;outlineConnect=0;targetShapes=umlLifeline;portConstraint=eastwest;newEdgeStyle={&quot;edgeStyle&quot;:&quot;elbowEdgeStyle&quot;,&quot;elbow&quot;:&quot;vertical&quot;,&quot;curved&quot;:0,&quot;rounded&quot;:0};" parent="1" vertex="1">
          <mxGeometry x="780" y="250" width="10" height="50" as="geometry" />
        </mxCell>
        <mxCell id="GjxCCbqdhPCahjUUIicC-14" value="Repository" style="shape=umlLifeline;perimeter=lifelinePerimeter;whiteSpace=wrap;html=1;container=0;dropTarget=0;collapsible=0;recursiveResize=0;outlineConnect=0;portConstraint=eastwest;newEdgeStyle={&quot;edgeStyle&quot;:&quot;elbowEdgeStyle&quot;,&quot;elbow&quot;:&quot;vertical&quot;,&quot;curved&quot;:0,&quot;rounded&quot;:0};" vertex="1" parent="1">
          <mxGeometry x="623" y="40" width="100" height="580" as="geometry" />
        </mxCell>
        <mxCell id="GjxCCbqdhPCahjUUIicC-15" value="" style="html=1;points=[];perimeter=orthogonalPerimeter;outlineConnect=0;targetShapes=umlLifeline;portConstraint=eastwest;newEdgeStyle={&quot;edgeStyle&quot;:&quot;elbowEdgeStyle&quot;,&quot;elbow&quot;:&quot;vertical&quot;,&quot;curved&quot;:0,&quot;rounded&quot;:0};" vertex="1" parent="GjxCCbqdhPCahjUUIicC-14">
          <mxGeometry x="45" y="190" width="10" height="90" as="geometry" />
        </mxCell>
        <mxCell id="GjxCCbqdhPCahjUUIicC-16" value="Service" style="shape=umlLifeline;perimeter=lifelinePerimeter;whiteSpace=wrap;html=1;container=0;dropTarget=0;collapsible=0;recursiveResize=0;outlineConnect=0;portConstraint=eastwest;newEdgeStyle={&quot;edgeStyle&quot;:&quot;elbowEdgeStyle&quot;,&quot;elbow&quot;:&quot;vertical&quot;,&quot;curved&quot;:0,&quot;rounded&quot;:0};" vertex="1" parent="1">
          <mxGeometry x="512" y="40" width="100" height="580" as="geometry" />
        </mxCell>
        <mxCell id="GjxCCbqdhPCahjUUIicC-17" value="" style="html=1;points=[];perimeter=orthogonalPerimeter;outlineConnect=0;targetShapes=umlLifeline;portConstraint=eastwest;newEdgeStyle={&quot;edgeStyle&quot;:&quot;elbowEdgeStyle&quot;,&quot;elbow&quot;:&quot;vertical&quot;,&quot;curved&quot;:0,&quot;rounded&quot;:0};" vertex="1" parent="GjxCCbqdhPCahjUUIicC-16">
          <mxGeometry x="45" y="190" width="10" height="90" as="geometry" />
        </mxCell>
        <mxCell id="GjxCCbqdhPCahjUUIicC-18" value="getData" style="html=1;verticalAlign=bottom;endArrow=block;edgeStyle=elbowEdgeStyle;elbow=vertical;curved=0;rounded=0;" edge="1" parent="1" source="GjxCCbqdhPCahjUUIicC-2" target="GjxCCbqdhPCahjUUIicC-17">
          <mxGeometry relative="1" as="geometry">
            <mxPoint x="460" y="264.5" as="sourcePoint" />
            <Array as="points">
              <mxPoint x="530" y="240" />
            </Array>
            <mxPoint x="572" y="264.5" as="targetPoint" />
          </mxGeometry>
        </mxCell>
        <mxCell id="GjxCCbqdhPCahjUUIicC-19" value="data" style="html=1;verticalAlign=bottom;endArrow=open;dashed=1;endSize=8;edgeStyle=elbowEdgeStyle;elbow=horizontal;curved=0;rounded=0;" edge="1" parent="1" source="GjxCCbqdhPCahjUUIicC-17" target="GjxCCbqdhPCahjUUIicC-2">
          <mxGeometry relative="1" as="geometry">
            <mxPoint x="490" y="349.5" as="targetPoint" />
            <Array as="points">
              <mxPoint x="510" y="310" />
              <mxPoint x="655" y="249.5" />
              <mxPoint x="605" y="259.5" />
            </Array>
            <mxPoint x="602" y="349.5" as="sourcePoint" />
            <mxPoint as="offset" />
          </mxGeometry>
        </mxCell>
        <mxCell id="GjxCCbqdhPCahjUUIicC-20" value="getData" style="html=1;verticalAlign=bottom;endArrow=block;edgeStyle=elbowEdgeStyle;elbow=vertical;curved=0;rounded=0;" edge="1" parent="1" source="GjxCCbqdhPCahjUUIicC-17" target="GjxCCbqdhPCahjUUIicC-15">
          <mxGeometry relative="1" as="geometry">
            <mxPoint x="570" y="259.5" as="sourcePoint" />
            <Array as="points">
              <mxPoint x="640" y="250" />
            </Array>
            <mxPoint x="670" y="259.5" as="targetPoint" />
          </mxGeometry>
        </mxCell>
        <mxCell id="GjxCCbqdhPCahjUUIicC-21" value="data" style="html=1;verticalAlign=bottom;endArrow=open;dashed=1;endSize=8;edgeStyle=elbowEdgeStyle;elbow=horizontal;curved=0;rounded=0;" edge="1" parent="1" source="GjxCCbqdhPCahjUUIicC-15" target="GjxCCbqdhPCahjUUIicC-17">
          <mxGeometry relative="1" as="geometry">
            <mxPoint x="580" y="329.5" as="targetPoint" />
            <Array as="points">
              <mxPoint x="640" y="300" />
              <mxPoint x="778" y="269" />
              <mxPoint x="728" y="279" />
            </Array>
            <mxPoint x="680" y="329.5" as="sourcePoint" />
            <mxPoint as="offset" />
          </mxGeometry>
        </mxCell>
      </root>
    </mxGraphModel>
  </diagram>
</mxfile>
